<svg width="32" height="32" viewBox="0 0 32 32" fill="none" xmlns="http://www.w3.org/2000/svg">
<g clip-path="url(#clip0_48_13)">
<circle cx="16" cy="16" r="16" fill="#4E9FFF"/>
<path d="M16.6338 22.4502V23.9004H15.1909V22.4502H16.6338ZM15.1909 22.4502V21.0146H16.6338V22.4502H15.1909ZM15.1909 21.0146V19.5425H16.6338V21.0146H15.1909ZM15.1909 15.1406V13.6685H16.6338V15.1406H15.1909ZM15.1909 13.6685V12.1963H16.6338V13.6685H15.1909ZM15.1909 12.1963V10.7607H16.6338V12.1963H15.1909ZM13.7261 10.7607V9.28857H15.1909V10.7607H13.7261ZM15.1909 22.4502V23.9004H13.7261V22.4502H15.1909ZM13.7261 22.4502V21.0146H15.1909V22.4502H13.7261ZM13.7261 21.0146V19.5425H15.1909V21.0146H13.7261ZM13.7261 19.5425V18.0776H15.1909V19.5425H13.7261ZM13.7261 16.6055V15.1406H15.1909V16.6055H13.7261ZM13.7261 15.1406V13.6685H15.1909V15.1406H13.7261ZM13.7261 13.6685V12.1963H15.1909V13.6685H13.7261ZM13.7261 12.1963V10.7607H15.1909V12.1963H13.7261ZM12.2539 10.7607V9.28857H13.7261V10.7607H12.2539ZM13.7261 22.4502V23.9004H12.2539V22.4502H13.7261ZM12.2539 22.4502V21.0146H13.7261V22.4502H12.2539ZM12.2539 19.5425V18.0776H13.7261V19.5425H12.2539ZM12.2539 18.0776V16.6055H13.7261V18.0776H12.2539ZM12.2539 16.6055V15.1406H13.7261V16.6055H12.2539ZM12.2539 15.1406V13.6685H13.7261V15.1406H12.2539ZM12.2539 13.6685V12.1963H13.7261V13.6685H12.2539ZM10.7891 10.7607V9.28857H12.2539V10.7607H10.7891ZM12.2539 22.4502V23.9004H10.7891V22.4502H12.2539ZM10.7891 22.4502V21.0146H12.2539V22.4502H10.7891ZM10.7891 18.0776V16.6055H12.2539V18.0776H10.7891ZM10.7891 16.6055V15.1406H12.2539V16.6055H10.7891ZM10.7891 15.1406V13.6685H12.2539V15.1406H10.7891ZM9.31689 10.7607V9.28857H10.7891V10.7607H9.31689ZM9.31689 22.4502V21.0146H10.7891V22.4502H9.31689ZM9.31689 21.0146V19.5425H10.7891V21.0146H9.31689ZM9.31689 16.6055V15.1406H10.7891V16.6055H9.31689ZM9.31689 12.1963V10.7607H10.7891V12.1963H9.31689ZM9.31689 22.4502V23.9004H7.84473V22.4502H9.31689ZM7.84473 22.4502V21.0146H9.31689V22.4502H7.84473ZM7.84473 21.0146V19.5425H9.31689V21.0146H7.84473ZM7.84473 19.5425V18.0776H9.31689V19.5425H7.84473ZM7.84473 13.6685V12.1963H9.31689V13.6685H7.84473ZM7.84473 12.1963V10.7607H9.31689V12.1963H7.84473ZM6.40918 10.7607V9.28857H7.84473V10.7607H6.40918ZM7.84473 22.4502V23.9004H6.40918V22.4502H7.84473ZM6.40918 22.4502V21.0146H7.84473V22.4502H6.40918ZM6.40918 21.0146V19.5425H7.84473V21.0146H6.40918ZM6.40918 19.5425V18.0776H7.84473V19.5425H6.40918ZM6.40918 18.0776V16.6055H7.84473V18.0776H6.40918ZM6.40918 15.1406V13.6685H7.84473V15.1406H6.40918ZM6.40918 13.6685V12.1963H7.84473V13.6685H6.40918ZM6.40918 12.1963V10.7607H7.84473V12.1963H6.40918ZM4.93701 10.7607V9.28857H6.40918V10.7607H4.93701ZM6.40918 22.4502V23.9004H4.93701V22.4502H6.40918ZM4.93701 22.4502V21.0146H6.40918V22.4502H4.93701ZM3.47217 10.7607V9.28857H4.93701V10.7607H3.47217ZM4.93701 22.4502V23.9004H3.47217V22.4502H4.93701ZM3.47217 22.4502V21.0146H4.93701V22.4502H3.47217ZM2 10.7607V9.28857H3.47217V10.7607H2ZM2 22.4502V21.0146H3.47217V22.4502H2ZM2 21.0146V19.5425H3.47217V21.0146H2ZM2 19.5425V18.0776H3.47217V19.5425H2ZM2 18.0776V16.6055H3.47217V18.0776H2ZM2 16.6055V15.1406H3.47217V16.6055H2ZM2 15.1406V13.6685H3.47217V15.1406H2ZM2 13.6685V12.1963H3.47217V13.6685H2ZM2 12.1963V10.7607H3.47217V12.1963H2ZM28.3892 22.4502V21.0146H29.832V22.4502H28.3892ZM28.3892 21.0146V19.5425H29.832V21.0146H28.3892ZM28.3892 19.5425V18.0776H29.832V19.5425H28.3892ZM28.3892 18.0776V16.6055H29.832V18.0776H28.3892ZM28.3892 16.6055V15.1406H29.832V16.6055H28.3892ZM28.3892 15.1406V13.6685H29.832V15.1406H28.3892ZM28.3892 13.6685V12.1963H29.832V13.6685H28.3892ZM28.3892 22.4502V23.9004H26.9243V22.4502H28.3892ZM26.9243 22.4502V21.0146H28.3892V22.4502H26.9243ZM26.9243 21.0146V19.5425H28.3892V21.0146H26.9243ZM26.9243 19.5425V18.0776H28.3892V19.5425H26.9243ZM26.9243 18.0776V16.6055H28.3892V18.0776H26.9243ZM26.9243 16.6055V15.1406H28.3892V16.6055H26.9243ZM26.9243 15.1406V13.6685H28.3892V15.1406H26.9243ZM26.9243 13.6685V12.1963H28.3892V13.6685H26.9243ZM26.9243 12.1963V10.7607H28.3892V12.1963H26.9243ZM25.4521 10.7607V9.28857H26.9243V10.7607H25.4521ZM26.9243 22.4502V23.9004H25.4521V22.4502H26.9243ZM25.4521 22.4502V21.0146H26.9243V22.4502H25.4521ZM25.4521 21.0146V19.5425H26.9243V21.0146H25.4521ZM25.4521 16.6055V15.1406H26.9243V16.6055H25.4521ZM25.4521 15.1406V13.6685H26.9243V15.1406H25.4521ZM25.4521 12.1963V10.7607H26.9243V12.1963H25.4521ZM23.9873 10.7607V9.28857H25.4521V10.7607H23.9873ZM25.4521 22.4502V23.9004H23.9873V22.4502H25.4521ZM23.9873 22.4502V21.0146H25.4521V22.4502H23.9873ZM23.9873 15.1406V13.6685H25.4521V15.1406H23.9873ZM22.5151 10.7607V9.28857H23.9873V10.7607H22.5151ZM23.9873 22.4502V23.9004H22.5151V22.4502H23.9873ZM22.5151 22.4502V21.0146H23.9873V22.4502H22.5151ZM22.5151 19.5425V18.0776H23.9873V19.5425H22.5151ZM22.5151 18.0776V16.6055H23.9873V18.0776H22.5151ZM22.5151 15.1406V13.6685H23.9873V15.1406H22.5151ZM22.5151 13.6685V12.1963H23.9873V13.6685H22.5151ZM21.043 10.7607V9.28857H22.5151V10.7607H21.043ZM22.5151 22.4502V23.9004H21.043V22.4502H22.5151ZM21.043 22.4502V21.0146H22.5151V22.4502H21.043ZM21.043 19.5425V18.0776H22.5151V19.5425H21.043ZM21.043 18.0776V16.6055H22.5151V18.0776H21.043ZM21.043 15.1406V13.6685H22.5151V15.1406H21.043ZM21.043 13.6685V12.1963H22.5151V13.6685H21.043ZM19.6074 10.7607V9.28857H21.043V10.7607H19.6074ZM21.043 22.4502V23.9004H19.6074V22.4502H21.043ZM19.6074 22.4502V21.0146H21.043V22.4502H19.6074ZM19.6074 19.5425V18.0776H21.043V19.5425H19.6074ZM19.6074 18.0776V16.6055H21.043V18.0776H19.6074ZM19.6074 15.1406V13.6685H21.043V15.1406H19.6074ZM19.6074 13.6685V12.1963H21.043V13.6685H19.6074ZM18.1353 10.7607V9.28857H19.6074V10.7607H18.1353ZM19.6074 22.4502V23.9004H18.1353V22.4502H19.6074ZM18.1353 22.4502V21.0146H19.6074V22.4502H18.1353ZM18.1353 18.0776V16.6055H19.6074V18.0776H18.1353ZM16.6704 10.7607V9.28857H18.1353V10.7607H16.6704ZM16.6704 22.4502V21.0146H18.1353V22.4502H16.6704ZM16.6704 21.0146V19.5425H18.1353V21.0146H16.6704ZM16.6704 18.0776V16.6055H18.1353V18.0776H16.6704ZM16.6704 16.6055V15.1406H18.1353V16.6055H16.6704ZM16.6704 12.1963V10.7607H18.1353V12.1963H16.6704ZM15.1982 21.0146V19.5425H16.6704V21.0146H15.1982ZM15.1982 19.5425V18.0776H16.6704V19.5425H15.1982ZM15.1982 18.0776V16.6055H16.6704V18.0776H15.1982ZM15.1982 16.6055V15.1406H16.6704V16.6055H15.1982ZM15.1982 15.1406V13.6685H16.6704V15.1406H15.1982ZM15.1982 13.6685V12.1963H16.6704V13.6685H15.1982ZM15.1982 12.1963V10.7607H16.6704V12.1963H15.1982Z" fill="white"/>
</g>
<defs>
<clipPath id="clip0_48_13">
<rect width="32" height="32" fill="white"/>
</clipPath>
</defs>
</svg>
