<svg width="32" height="32" viewBox="0 0 32 32" fill="none" xmlns="http://www.w3.org/2000/svg">
<g clip-path="url(#clip0_48_13)">
<circle cx="16" cy="16" r="16" fill="#4E9FFF"/>
<path d="M6.24609 9C5.03149 9 4 9.87773 4 10.9687V21.0312C4 22.1223 5.03149 23 6.24609 23H26.7539C27.9685 23 29 22.1223 29 21.0312V10.9687C29 9.87773 27.9685 9 26.7539 9H6.24609ZM6.24609 10.4H26.7539C27.1567 10.4 27.4375 10.668 27.4375 10.9687V21.0312C27.4375 21.332 27.1567 21.6 26.7539 21.6H6.24609C5.84326 21.6 5.5625 21.332 5.5625 21.0312V10.9687C5.5625 10.668 5.84326 10.4 6.24609 10.4ZM7.90625 12.5V19.5H10.25V14.8406L12.5938 17.6187L14.9375 14.8406V19.5H17.2812V12.5H14.9375L12.5938 15.3L10.25 12.5H7.90625ZM21.1875 12.5V16H18.8438L22.3594 19.5L25.875 16H23.5312V12.5H21.1875Z" fill="white"/>
</g>
<defs>
<clipPath id="clip0_48_13">
<rect width="32" height="32" fill="white"/>
</clipPath>
</defs>
</svg>
